<mxfile host="app.diagrams.net" modified="2024-04-14T17:02:22.960Z" agent="Mozilla/5.0 (Windows NT 10.0; Win64; x64) AppleWebKit/537.36 (KHTML, like Gecko) Chrome/123.0.0.0 Safari/537.36" etag="8qSk5OtaIvGyh9bLoB5w" version="24.2.5" type="device">
  <diagram name="Страница — 1" id="PlCbI_eJ5hkY362tXKL7">
    <mxGraphModel dx="1434" dy="780" grid="1" gridSize="10" guides="1" tooltips="1" connect="1" arrows="1" fold="1" page="1" pageScale="1" pageWidth="827" pageHeight="1169" math="0" shadow="0">
      <root>
        <mxCell id="0" />
        <mxCell id="1" parent="0" />
        <mxCell id="c6AxVUFBgOoRWijh_fxd-5" style="edgeStyle=orthogonalEdgeStyle;rounded=0;orthogonalLoop=1;jettySize=auto;html=1;exitX=0.5;exitY=1;exitDx=0;exitDy=0;entryX=0.5;entryY=0;entryDx=0;entryDy=0;" edge="1" parent="1" source="c6AxVUFBgOoRWijh_fxd-1" target="c6AxVUFBgOoRWijh_fxd-3">
          <mxGeometry relative="1" as="geometry" />
        </mxCell>
        <mxCell id="c6AxVUFBgOoRWijh_fxd-1" value="START" style="rounded=1;whiteSpace=wrap;html=1;" vertex="1" parent="1">
          <mxGeometry x="380" y="10" width="120" height="60" as="geometry" />
        </mxCell>
        <mxCell id="c6AxVUFBgOoRWijh_fxd-2" value="END" style="rounded=1;whiteSpace=wrap;html=1;" vertex="1" parent="1">
          <mxGeometry x="380" y="710" width="120" height="60" as="geometry" />
        </mxCell>
        <mxCell id="c6AxVUFBgOoRWijh_fxd-9" value="" style="edgeStyle=orthogonalEdgeStyle;rounded=0;orthogonalLoop=1;jettySize=auto;html=1;" edge="1" parent="1" source="c6AxVUFBgOoRWijh_fxd-3" target="c6AxVUFBgOoRWijh_fxd-8">
          <mxGeometry relative="1" as="geometry" />
        </mxCell>
        <mxCell id="c6AxVUFBgOoRWijh_fxd-3" value="Array (String)&lt;div&gt;i, j, n, count&amp;nbsp;&lt;/div&gt;" style="shape=parallelogram;perimeter=parallelogramPerimeter;whiteSpace=wrap;html=1;fixedSize=1;" vertex="1" parent="1">
          <mxGeometry x="380" y="90" width="120" height="60" as="geometry" />
        </mxCell>
        <mxCell id="c6AxVUFBgOoRWijh_fxd-12" value="" style="edgeStyle=orthogonalEdgeStyle;rounded=0;orthogonalLoop=1;jettySize=auto;html=1;" edge="1" parent="1" source="c6AxVUFBgOoRWijh_fxd-6" target="c6AxVUFBgOoRWijh_fxd-11">
          <mxGeometry relative="1" as="geometry" />
        </mxCell>
        <mxCell id="c6AxVUFBgOoRWijh_fxd-30" style="edgeStyle=orthogonalEdgeStyle;rounded=0;orthogonalLoop=1;jettySize=auto;html=1;exitX=1;exitY=0.5;exitDx=0;exitDy=0;entryX=0.5;entryY=0;entryDx=0;entryDy=0;" edge="1" parent="1" source="c6AxVUFBgOoRWijh_fxd-6" target="c6AxVUFBgOoRWijh_fxd-13">
          <mxGeometry relative="1" as="geometry">
            <Array as="points">
              <mxPoint x="510" y="305" />
              <mxPoint x="510" y="360" />
              <mxPoint x="440" y="360" />
            </Array>
          </mxGeometry>
        </mxCell>
        <mxCell id="c6AxVUFBgOoRWijh_fxd-6" value="i &amp;lt; n" style="rhombus;whiteSpace=wrap;html=1;" vertex="1" parent="1">
          <mxGeometry x="395" y="260" width="90" height="90" as="geometry" />
        </mxCell>
        <mxCell id="c6AxVUFBgOoRWijh_fxd-10" value="" style="edgeStyle=orthogonalEdgeStyle;rounded=0;orthogonalLoop=1;jettySize=auto;html=1;" edge="1" parent="1" source="c6AxVUFBgOoRWijh_fxd-8" target="c6AxVUFBgOoRWijh_fxd-6">
          <mxGeometry relative="1" as="geometry" />
        </mxCell>
        <mxCell id="c6AxVUFBgOoRWijh_fxd-8" value="&lt;span style=&quot;color: rgb(0, 0, 0); font-family: Helvetica; font-size: 12px; font-style: normal; font-variant-ligatures: normal; font-variant-caps: normal; font-weight: 400; letter-spacing: normal; orphans: 2; text-align: center; text-indent: 0px; text-transform: none; widows: 2; word-spacing: 0px; -webkit-text-stroke-width: 0px; white-space: normal; background-color: rgb(251, 251, 251); text-decoration-thickness: initial; text-decoration-style: initial; text-decoration-color: initial; display: inline !important; float: none;&quot;&gt;i = 0&lt;/span&gt;&lt;div style=&quot;forced-color-adjust: none; color: rgb(0, 0, 0); font-family: Helvetica; font-size: 12px; font-style: normal; font-variant-ligatures: normal; font-variant-caps: normal; font-weight: 400; letter-spacing: normal; orphans: 2; text-align: center; text-indent: 0px; text-transform: none; widows: 2; word-spacing: 0px; -webkit-text-stroke-width: 0px; white-space: normal; background-color: rgb(251, 251, 251); text-decoration-thickness: initial; text-decoration-style: initial; text-decoration-color: initial;&quot;&gt;count = 0&lt;/div&gt;&lt;div style=&quot;forced-color-adjust: none; color: rgb(0, 0, 0); font-family: Helvetica; font-size: 12px; font-style: normal; font-variant-ligatures: normal; font-variant-caps: normal; font-weight: 400; letter-spacing: normal; orphans: 2; text-align: center; text-indent: 0px; text-transform: none; widows: 2; word-spacing: 0px; -webkit-text-stroke-width: 0px; white-space: normal; background-color: rgb(251, 251, 251); text-decoration-thickness: initial; text-decoration-style: initial; text-decoration-color: initial;&quot;&gt;n = array length&amp;nbsp;&lt;/div&gt;" style="rounded=0;whiteSpace=wrap;html=1;" vertex="1" parent="1">
          <mxGeometry x="380" y="170" width="120" height="60" as="geometry" />
        </mxCell>
        <mxCell id="c6AxVUFBgOoRWijh_fxd-20" value="" style="edgeStyle=orthogonalEdgeStyle;rounded=0;orthogonalLoop=1;jettySize=auto;html=1;" edge="1" parent="1" source="c6AxVUFBgOoRWijh_fxd-11" target="c6AxVUFBgOoRWijh_fxd-19">
          <mxGeometry relative="1" as="geometry" />
        </mxCell>
        <mxCell id="c6AxVUFBgOoRWijh_fxd-26" style="edgeStyle=orthogonalEdgeStyle;rounded=0;orthogonalLoop=1;jettySize=auto;html=1;exitX=0.5;exitY=1;exitDx=0;exitDy=0;entryX=0.5;entryY=0;entryDx=0;entryDy=0;" edge="1" parent="1" source="c6AxVUFBgOoRWijh_fxd-11" target="c6AxVUFBgOoRWijh_fxd-17">
          <mxGeometry relative="1" as="geometry">
            <Array as="points">
              <mxPoint x="325" y="360" />
              <mxPoint x="190" y="360" />
            </Array>
          </mxGeometry>
        </mxCell>
        <mxCell id="c6AxVUFBgOoRWijh_fxd-11" value="n [i] =&amp;lt; 3" style="rhombus;whiteSpace=wrap;html=1;" vertex="1" parent="1">
          <mxGeometry x="280" y="260" width="90" height="90" as="geometry" />
        </mxCell>
        <mxCell id="c6AxVUFBgOoRWijh_fxd-36" style="edgeStyle=orthogonalEdgeStyle;rounded=0;orthogonalLoop=1;jettySize=auto;html=1;exitX=0.5;exitY=1;exitDx=0;exitDy=0;entryX=0.5;entryY=0;entryDx=0;entryDy=0;" edge="1" parent="1" source="c6AxVUFBgOoRWijh_fxd-13" target="c6AxVUFBgOoRWijh_fxd-33">
          <mxGeometry relative="1" as="geometry" />
        </mxCell>
        <mxCell id="c6AxVUFBgOoRWijh_fxd-13" value="New Array&lt;div&gt;j, i = 0&lt;/div&gt;&lt;div&gt;n = array length&lt;/div&gt;" style="rounded=0;whiteSpace=wrap;html=1;" vertex="1" parent="1">
          <mxGeometry x="380" y="380" width="120" height="60" as="geometry" />
        </mxCell>
        <mxCell id="c6AxVUFBgOoRWijh_fxd-15" value="No" style="text;html=1;align=center;verticalAlign=middle;resizable=0;points=[];autosize=1;strokeColor=none;fillColor=none;" vertex="1" parent="1">
          <mxGeometry x="470" y="268" width="40" height="30" as="geometry" />
        </mxCell>
        <mxCell id="c6AxVUFBgOoRWijh_fxd-16" value="Yes" style="text;html=1;align=center;verticalAlign=middle;resizable=0;points=[];autosize=1;strokeColor=none;fillColor=none;" vertex="1" parent="1">
          <mxGeometry x="370" y="268" width="40" height="30" as="geometry" />
        </mxCell>
        <mxCell id="c6AxVUFBgOoRWijh_fxd-29" style="edgeStyle=orthogonalEdgeStyle;rounded=0;orthogonalLoop=1;jettySize=auto;html=1;exitX=0.5;exitY=1;exitDx=0;exitDy=0;entryX=0.5;entryY=0;entryDx=0;entryDy=0;" edge="1" parent="1" source="c6AxVUFBgOoRWijh_fxd-17" target="c6AxVUFBgOoRWijh_fxd-6">
          <mxGeometry relative="1" as="geometry">
            <Array as="points">
              <mxPoint x="190" y="460" />
              <mxPoint x="90" y="460" />
              <mxPoint x="90" y="240" />
              <mxPoint x="440" y="240" />
            </Array>
          </mxGeometry>
        </mxCell>
        <mxCell id="c6AxVUFBgOoRWijh_fxd-17" value="i = i +1" style="rounded=0;whiteSpace=wrap;html=1;" vertex="1" parent="1">
          <mxGeometry x="130" y="380" width="120" height="60" as="geometry" />
        </mxCell>
        <mxCell id="c6AxVUFBgOoRWijh_fxd-23" value="" style="edgeStyle=orthogonalEdgeStyle;rounded=0;orthogonalLoop=1;jettySize=auto;html=1;" edge="1" parent="1" source="c6AxVUFBgOoRWijh_fxd-19" target="c6AxVUFBgOoRWijh_fxd-17">
          <mxGeometry relative="1" as="geometry" />
        </mxCell>
        <mxCell id="c6AxVUFBgOoRWijh_fxd-19" value="count = count + 1" style="rounded=0;whiteSpace=wrap;html=1;" vertex="1" parent="1">
          <mxGeometry x="130" y="275" width="120" height="60" as="geometry" />
        </mxCell>
        <mxCell id="c6AxVUFBgOoRWijh_fxd-21" value="Yes" style="text;html=1;align=center;verticalAlign=middle;resizable=0;points=[];autosize=1;strokeColor=none;fillColor=none;" vertex="1" parent="1">
          <mxGeometry x="250" y="268" width="40" height="30" as="geometry" />
        </mxCell>
        <mxCell id="c6AxVUFBgOoRWijh_fxd-22" value="No" style="text;html=1;align=center;verticalAlign=middle;resizable=0;points=[];autosize=1;strokeColor=none;fillColor=none;" vertex="1" parent="1">
          <mxGeometry x="340" y="335" width="40" height="30" as="geometry" />
        </mxCell>
        <mxCell id="c6AxVUFBgOoRWijh_fxd-32" value="" style="edgeStyle=orthogonalEdgeStyle;rounded=0;orthogonalLoop=1;jettySize=auto;html=1;" edge="1" parent="1" source="c6AxVUFBgOoRWijh_fxd-33">
          <mxGeometry relative="1" as="geometry">
            <mxPoint x="370" y="545" as="targetPoint" />
          </mxGeometry>
        </mxCell>
        <mxCell id="c6AxVUFBgOoRWijh_fxd-39" style="edgeStyle=orthogonalEdgeStyle;rounded=0;orthogonalLoop=1;jettySize=auto;html=1;exitX=1;exitY=0.5;exitDx=0;exitDy=0;entryX=0.5;entryY=0;entryDx=0;entryDy=0;" edge="1" parent="1" source="c6AxVUFBgOoRWijh_fxd-33" target="c6AxVUFBgOoRWijh_fxd-37">
          <mxGeometry relative="1" as="geometry">
            <Array as="points">
              <mxPoint x="510" y="545" />
              <mxPoint x="510" y="600" />
              <mxPoint x="440" y="600" />
            </Array>
          </mxGeometry>
        </mxCell>
        <mxCell id="c6AxVUFBgOoRWijh_fxd-33" value="i &amp;lt; n" style="rhombus;whiteSpace=wrap;html=1;" vertex="1" parent="1">
          <mxGeometry x="395" y="500" width="90" height="90" as="geometry" />
        </mxCell>
        <mxCell id="c6AxVUFBgOoRWijh_fxd-34" value="No" style="text;html=1;align=center;verticalAlign=middle;resizable=0;points=[];autosize=1;strokeColor=none;fillColor=none;" vertex="1" parent="1">
          <mxGeometry x="470" y="508" width="40" height="30" as="geometry" />
        </mxCell>
        <mxCell id="c6AxVUFBgOoRWijh_fxd-35" value="Yes" style="text;html=1;align=center;verticalAlign=middle;resizable=0;points=[];autosize=1;strokeColor=none;fillColor=none;" vertex="1" parent="1">
          <mxGeometry x="370" y="508" width="40" height="30" as="geometry" />
        </mxCell>
        <mxCell id="c6AxVUFBgOoRWijh_fxd-38" value="" style="edgeStyle=orthogonalEdgeStyle;rounded=0;orthogonalLoop=1;jettySize=auto;html=1;" edge="1" parent="1" source="c6AxVUFBgOoRWijh_fxd-37" target="c6AxVUFBgOoRWijh_fxd-2">
          <mxGeometry relative="1" as="geometry" />
        </mxCell>
        <mxCell id="c6AxVUFBgOoRWijh_fxd-37" value="Final Array" style="shape=parallelogram;perimeter=parallelogramPerimeter;whiteSpace=wrap;html=1;fixedSize=1;" vertex="1" parent="1">
          <mxGeometry x="380" y="620" width="120" height="60" as="geometry" />
        </mxCell>
        <mxCell id="c6AxVUFBgOoRWijh_fxd-42" value="" style="edgeStyle=orthogonalEdgeStyle;rounded=0;orthogonalLoop=1;jettySize=auto;html=1;" edge="1" parent="1" source="c6AxVUFBgOoRWijh_fxd-43">
          <mxGeometry relative="1" as="geometry">
            <mxPoint x="250" y="545" as="targetPoint" />
          </mxGeometry>
        </mxCell>
        <mxCell id="c6AxVUFBgOoRWijh_fxd-43" value="n [i] =&amp;lt; 3" style="rhombus;whiteSpace=wrap;html=1;" vertex="1" parent="1">
          <mxGeometry x="280" y="500" width="90" height="90" as="geometry" />
        </mxCell>
        <mxCell id="c6AxVUFBgOoRWijh_fxd-44" value="Yes" style="text;html=1;align=center;verticalAlign=middle;resizable=0;points=[];autosize=1;strokeColor=none;fillColor=none;" vertex="1" parent="1">
          <mxGeometry x="250" y="508" width="40" height="30" as="geometry" />
        </mxCell>
        <mxCell id="c6AxVUFBgOoRWijh_fxd-45" value="No" style="text;html=1;align=center;verticalAlign=middle;resizable=0;points=[];autosize=1;strokeColor=none;fillColor=none;" vertex="1" parent="1">
          <mxGeometry x="340" y="575" width="40" height="30" as="geometry" />
        </mxCell>
        <mxCell id="c6AxVUFBgOoRWijh_fxd-48" style="edgeStyle=orthogonalEdgeStyle;rounded=0;orthogonalLoop=1;jettySize=auto;html=1;exitX=0.5;exitY=1;exitDx=0;exitDy=0;entryX=0.5;entryY=0;entryDx=0;entryDy=0;" edge="1" parent="1" source="c6AxVUFBgOoRWijh_fxd-46" target="c6AxVUFBgOoRWijh_fxd-47">
          <mxGeometry relative="1" as="geometry" />
        </mxCell>
        <mxCell id="c6AxVUFBgOoRWijh_fxd-46" value="Final Array[j] = Array[i]&amp;nbsp;&amp;nbsp;&lt;div&gt;j = j +1&lt;/div&gt;" style="rounded=0;whiteSpace=wrap;html=1;" vertex="1" parent="1">
          <mxGeometry x="130" y="515" width="120" height="60" as="geometry" />
        </mxCell>
        <mxCell id="c6AxVUFBgOoRWijh_fxd-47" value="i = i +1" style="rounded=0;whiteSpace=wrap;html=1;" vertex="1" parent="1">
          <mxGeometry x="130" y="620" width="120" height="60" as="geometry" />
        </mxCell>
        <mxCell id="c6AxVUFBgOoRWijh_fxd-49" style="edgeStyle=orthogonalEdgeStyle;rounded=0;orthogonalLoop=1;jettySize=auto;html=1;exitX=0.5;exitY=1;exitDx=0;exitDy=0;entryX=0.5;entryY=0;entryDx=0;entryDy=0;" edge="1" parent="1">
          <mxGeometry relative="1" as="geometry">
            <mxPoint x="190" y="680" as="sourcePoint" />
            <mxPoint x="440" y="500" as="targetPoint" />
            <Array as="points">
              <mxPoint x="190" y="700" />
              <mxPoint x="90" y="700" />
              <mxPoint x="90" y="480" />
              <mxPoint x="440" y="480" />
            </Array>
          </mxGeometry>
        </mxCell>
        <mxCell id="c6AxVUFBgOoRWijh_fxd-50" style="edgeStyle=orthogonalEdgeStyle;rounded=0;orthogonalLoop=1;jettySize=auto;html=1;exitX=0.5;exitY=1;exitDx=0;exitDy=0;entryX=0.5;entryY=0;entryDx=0;entryDy=0;" edge="1" parent="1">
          <mxGeometry relative="1" as="geometry">
            <mxPoint x="325" y="590" as="sourcePoint" />
            <mxPoint x="190" y="620" as="targetPoint" />
            <Array as="points">
              <mxPoint x="325" y="600" />
              <mxPoint x="190" y="600" />
            </Array>
          </mxGeometry>
        </mxCell>
      </root>
    </mxGraphModel>
  </diagram>
</mxfile>
